<?xml version="1.0" standalone="no"?>
<!DOCTYPE svg PUBLIC "-//W3C//DTD SVG 20010904//EN"
 "http://www.w3.org/TR/2001/REC-SVG-20010904/DTD/svg10.dtd">
<svg version="1.0" xmlns="http://www.w3.org/2000/svg"
 width="401.000000pt" height="401.000000pt" viewBox="0 0 401.000000 401.000000"
 preserveAspectRatio="xMidYMid meet">
<metadata>
Created by potrace 1.14, written by Peter Selinger 2001-2017
</metadata>
<g transform="translate(0.000000,401.000000) scale(0.100000,-0.100000)"
fill="#000000" stroke="none">
<path d="M1099 3936 c-2 -2 -35 -7 -73 -11 -172 -17 -313 -75 -413 -170 -35
-33 -93 -76 -129 -95 -75 -40 -166 -117 -198 -169 -13 -20 -33 -63 -45 -96
-22 -57 -74 -256 -85 -320 -2 -16 -9 -52 -14 -80 -10 -48 -37 -225 -48 -310
-3 -22 -8 -51 -11 -65 -13 -62 -12 -269 1 -314 8 -25 12 -46 10 -46 -2 0 11
-30 30 -67 48 -95 132 -178 366 -364 39 -31 317 -231 360 -260 8 -5 69 -47
135 -92 239 -164 374 -255 590 -396 121 -79 236 -158 256 -175 56 -48 83 -70
131 -107 23 -19 52 -42 63 -52 53 -49 234 -173 360 -246 212 -124 700 -365
892 -442 76 -30 77 -30 102 -11 14 10 38 48 53 83 16 38 32 63 40 61 7 -2 67
-18 134 -36 66 -18 126 -30 132 -28 34 11 93 169 117 312 3 19 10 60 15 90 25
149 34 335 34 720 0 307 -8 646 -18 695 -2 11 -6 43 -10 70 -4 28 -18 111 -32
185 -14 74 -28 146 -30 160 -3 14 -7 32 -9 40 -2 8 -7 31 -10 50 -3 19 -17 81
-30 138 -14 56 -27 113 -29 125 -2 12 -16 69 -31 127 -15 58 -28 112 -30 120
-6 27 -33 125 -39 140 -3 8 -8 26 -10 40 -8 43 -95 318 -123 388 -28 70 -68
142 -87 154 -63 43 -370 117 -591 143 -87 10 -127 16 -240 35 -122 20 -174 27
-255 35 -30 3 -68 8 -85 10 -16 2 -129 6 -250 10 -121 4 -251 9 -290 11 -100
7 -601 15 -606 10z m666 -50 c39 -2 164 -7 279 -10 216 -7 283 -15 135 -17
-46 -1 -104 -2 -129 -3 -80 -5 -293 -17 -350 -21 -30 -2 -113 -7 -185 -10
-267 -12 -336 -16 -490 -31 -85 -8 -304 -44 -332 -55 -55 -21 -58 -4 -5 31 20
14 39 27 42 30 27 28 194 77 300 86 36 4 67 8 70 11 5 5 536 -4 665 -11z m455
-3206 c249 -142 571 -271 1057 -424 73 -23 135 -45 138 -48 7 -7 -24 -86 -46
-115 -15 -22 -16 -22 -62 -5 -25 10 -49 21 -53 25 -4 4 -13 7 -20 7 -11 0 -75
29 -314 143 -272 130 -641 336 -735 411 -22 17 -59 44 -83 60 -62 42 -62 52 0
15 29 -18 82 -49 118 -69z"/>
</g>
</svg>
